<?xml version="1.0" encoding="UTF-8"?>
<svg xmlns="http://www.w3.org/2000/svg" xmlns:xlink="http://www.w3.org/1999/xlink" version="1.1" viewBox="0 0 85.6 119">
  <!-- Generator: Adobe Illustrator 30.5.1, SVG Export Plug-In . SVG Version: 2.1.4 Build 3)  -->
  <defs>
    <linearGradient id="Unbenannter_Verlauf_45" data-name="Unbenannter Verlauf 45" x1="49.3" y1="119" x2="49.3" y2="20.6" gradientUnits="userSpaceOnUse">
      <stop offset="0" stop-color="#51c1e1"/>
      <stop offset="1" stop-color="#005d99"/>
    </linearGradient>
    <linearGradient id="Unbenannter_Verlauf_74" data-name="Unbenannter Verlauf 74" x1="12.9" y1="69.8" x2="85.6" y2="69.8" gradientUnits="userSpaceOnUse">
      <stop offset="0" stop-color="#005d99"/>
      <stop offset=".9" stop-color="#51c1e1"/>
    </linearGradient>
  </defs>
  <g isolation="isolate">
    <g id="Ebene_1">
      <g>
        <path d="M45.5,1.9C42.6,0,40.5-.4,37.4.3c-4.2,1-9.4,3.5-14.3,19.9v.4c-.1,0,2.2.6,2.2.6v-.4c3.7-12.1,6.6-16.7,12-18,2.3-.5,3.2-.9,6,.6l.2.2.2-.2c.5-.3,1-.6,1.5-.9l.6-.3-.5-.4Z" fill="#878787"/>
        <polygon points="16.4 20.6 77.8 36.7 85.6 117.2 12.9 119 16.4 20.6" fill="url(#Unbenannter_Verlauf_45)"/>
        <path d="M15.1,20.7l-3.3,97.5s-6.5-10.8-11.7-20.6c0,0,14-41.7,15.1-76.9Z" fill="#0097ae"/>
        <path d="M58.5,96.2" fill="none" stroke="#1d1e1b" stroke-miterlimit="10" stroke-width="3"/>
        <path d="M2,75.1" fill="none" stroke="#1d1e1b" stroke-miterlimit="10" stroke-width="3"/>
        <polygon points="16.4 20.6 77.8 36.7 85.6 117.2 12.9 119 16.4 20.6" fill="url(#Unbenannter_Verlauf_45)"/>
        <polygon points="16.4 20.6 77.8 36.7 85.6 117.2 12.9 119 16.4 20.6" fill="url(#Unbenannter_Verlauf_74)"/>
        <g mix-blend-mode="multiply" opacity=".6">
          <g>
            <path d="M58.3,51.9c.1.3.3.5.5.7.2.2.5.3.7.4.3,0,.5.1.8.1s0,0,0,0h.2c.2,0,.4,0,.6,0,.2,0,.4,0,.6,0l1.2-.2c0,0,.1,0,.2,0h.4c0-.1.1-.2.2-.2.2,0,.3-.1.4-.2.1,0,.2-.1.3-.2,0,0,0,0,.1-.1.2-.1.4-.3.6-.4.2-.1.4-.3.6-.5.2-.2.4-.3.6-.5l.5-.4c.1,0,.2-.1.3-.2.1,0,.2-.1.3-.2s.2-.2.3-.3c.1,0,.2-.2.3-.3.3-.3.6-.6.9-1,.3-.4.5-.8.7-1.2.2-.4.4-.9.5-1.4.1-.5.3-1,.3-1.5,0-.4.1-.7.2-1.2l.2-1c0-.4.1-.7.2-1.1,0-.4.1-.7.2-1.1.2-1.5.3-3,.3-4.5,0,0,0-.1,0-.2l-2.8-.7c0,1.3,0,2.5-.2,3.8,0,.5,0,.9-.2,1.4,0,.5-.1.9-.2,1.4l-.2,1.4c0,.5-.1.9-.2,1.4,0,.4-.1.7-.2,1,0,.3-.2.6-.3.9-.1.3-.3.5-.4.7-.1.2-.3.4-.5.6-.1,0-.2,0-.4.1-.2,0-.3.1-.5.2l-.5.2c-.2,0-.3,0-.4.1,0,0,0,0-.1,0,0,0,0,0-.1,0,0,0,0,0-.1,0,0,0,0,0,0,0v.4s-.1-.4-.1-.4c-.1,0-.3-.1-.4-.2-.1,0-.3,0-.4-.1-.1,0-.3,0-.4,0-.1,0-.3,0-.4,0-.2,0-.5,0-.7,0-.2,0-.5,0-.7.1-.2,0-.5.1-.7.2-.2,0-.4.1-.7.2-.3,0-.6.2-.9.5-.2.2-.4.5-.6.8-.1.3-.2.6-.2.9,0,.3,0,.7,0,1,0,.3.2.6.3.9Z" fill="#575756"/>
            <path d="M29.7,39.2v2.3c.1.6.2,1.1.3,1.6,0,.5.2,1,.4,1.5.2.5.4.9.6,1.3.2.4.5.8.8,1.2,0,0,.2.2.3.3,0,0,.2.2.3.3,0,0,.2.2.3.3,0,0,.2.2.3.2l.5.6c.2.2.4.4.6.6.2.2.4.4.6.5.2.2.4.3.6.5,0,0,0,0,.1.1,0,0,.1.1.2.2,0,0,.2.1.4.2,0,0,.1,0,.2,0h.2c0,.1.1.1.2.2,0,0,.1,0,.2,0l1.2.4c.2,0,.4.1.6.2.2,0,.4.1.6.2,0,0,.1,0,.2,0s.1,0,.2,0c0,0,.1,0,.2,0,0,0,.1,0,.2,0,.3,0,.5,0,.8-.1.2,0,.5-.2.7-.4.2-.2.4-.4.5-.6.1-.2.3-.5.4-.8.1-.3.2-.7.2-1,0-.3,0-.7-.1-1-.1-.3-.3-.6-.5-.8-.2-.2-.5-.4-.8-.6-.2,0-.4-.2-.6-.2h-.2c-.3-.2-.6-.3-.8-.4-.3-.1-.6-.2-.9-.2-.3,0-.6,0-1,0,0,0-.2,0-.3,0,0,0-.2,0-.3,0,0,0-.2,0-.3,0,0,0-.2,0-.3,0,0,0,0,0-.1,0,0,0,0,0-.1,0,0,0-.1,0-.2,0,0,0,0,0-.2,0,0,0-.2-.1-.4-.2l-.5-.2c-.2,0-.4-.2-.5-.2-.1,0-.3-.1-.4-.2-.2-.2-.3-.4-.4-.6-.1-.3-.3-.5-.3-.8,0-.3-.2-.6-.2-.9,0-.3,0-.7-.1-1.1,0-.4,0-.8,0-1.2v-1.7c0-.5,0-1,0-1.4,0-.5,0-1,0-1.4,0-1.4.1-2.8.3-4.1.2-1.4.4-2.7.7-4,.2-.7.3-1.5.5-2.2l-2.9-.8c-.3,1-.5,2.1-.7,3.1-.3,1.5-.5,3-.7,4.6-.1,1.5-.2,3.1-.2,4.7,0,.4,0,.8,0,1.2,0,.4,0,.8,0,1.2ZM36.3,46.2h0s0,0,0,0h0Z" fill="#575756"/>
          </g>
          <path d="M67.3,81.4c-1.4-1.4-3.2-2.1-5.1-2.1h0c-1.9,0-3.7.8-5.1,2.1-1.4,1.4-2.1,3.2-2.1,5.1,0,0,0,.2,0,.2l-4.7,1.3c-.5.1-1,.5-1.2,1.1-17.6,4.1-28.5,4.6-35.2,3.4v2.7c2.1.4,4.5.5,7.3.6h0c7.6,0,17.3-1.4,29-4.1.3.1.7.1,1.1,0l4.8-1.3c1.3,2.1,3.7,3.4,6.1,3.4h0c1.9,0,3.7-.8,5.1-2.1,1.4-1.4,2.1-3.2,2.1-5.1,0-1.9-.8-3.7-2.1-5.1ZM62.2,91.1h0c-2.5,0-4.5-2-4.5-4.5,0-1.2.5-2.3,1.3-3.2.9-.9,2-1.3,3.2-1.3h0c2.5,0,4.5,2,4.5,4.5,0,2.5-2,4.5-4.5,4.5Z" fill="#575756"/>
          <path d="M4.9,88.1c-.6-.9-1.1-1.8-1.3-2.8l-1.2,4c0,.1.2.3.3.4,1.9,2.6,5.1,4.3,9.5,5.2v-2.7c-3.9-.9-6.1-2.5-7.4-4.1Z" fill="#575756"/>
        </g>
        <path d="M73.2,30c-.1-1.5-.3-3-.5-4.5-.3-1.5-.6-3-1-4.4h0c0-.3,0-.4-.1-.5,0-.2,0-.3,0-.5,0-.2,0-.3,0-.4,0-.2,0-.3.1-.5s0-.3.1-.4c0-.1,0-.3,0-.4,0-.1,0-.3,0-.4,0-.1,0-.2-.1-.4-.7-1.7-1.4-3.3-2.1-4.7-.8-1.5-1.8-2.9-2.7-4.2-1.1-1.3-2.2-2.5-3.5-3.5-1.3-1.1-2.8-1.9-4.4-2.6-.3-.1-.6-.2-1-.3-.3,0-.7-.2-1.1-.3-.4,0-.7-.1-1.1-.2-.4,0-.8-.1-1.1-.1h-1.2c-.1,0-.3,0-.4,0h0c-.2,0-.4,0-.7,0-.2,0-.4,0-.7,0-.2,0-.4,0-.7,0-.2,0-.4,0-.7.1-1.7.4-3.2,1-4.7,1.8-1.4.8-2.7,1.7-4,2.8-1.2,1.1-2.3,2.3-3.3,3.7-1,1.3-1.9,2.8-2.8,4.4,0,.1-.1.2-.2.3,0,.1,0,.3-.1.4,0,.1,0,.3,0,.4,0,.2,0,.3,0,.4,0,.2,0,.3,0,.5,0,.1,0,.3,0,.5,0,.2,0,.3-.2.5,0,.1,0,.2-.1.4v.2c-.7,1.4-1.2,2.9-1.6,4.3-.4,1.5-.8,3-1.1,4.5-.3,1.5-.5,3-.7,4.6-.1,1.5-.2,3.1-.2,4.7,0,.4,0,.8,0,1.2,0,.4,0,.8,0,1.2v2.3c.1.6.2,1.1.3,1.6,0,.5.2,1,.4,1.5.2.5.4.9.6,1.3.2.4.5.8.8,1.2,0,0,.2.2.3.3,0,0,.2.2.3.3,0,0,.2.2.3.3,0,0,.2.2.3.2l.5.6c.2.2.4.4.6.6.2.2.4.4.6.5.2.2.4.3.5.5,0,0,0,0,.1.1,0,0,.1.1.2.2,0,0,.2.1.4.2,0,0,.1,0,.2,0h.2c0,.1.1.1.2.2,0,0,.1,0,.2,0l1.2.4c.2,0,.4.1.6.2.2,0,.4.1.6.2,0,0,.1,0,.2,0,0,0,.1,0,.2,0,0,0,.1,0,.2,0,0,0,.1,0,.2,0,.3,0,.5,0,.8-.1.2,0,.5-.2.7-.4.2-.2.4-.4.5-.6.1-.2.3-.5.4-.8.1-.3.2-.7.2-1,0-.3,0-.7-.1-1-.1-.3-.3-.6-.5-.8-.2-.2-.5-.4-.8-.6-.2,0-.4-.2-.6-.2h-.2c-.3-.2-.6-.3-.8-.4-.3-.1-.6-.2-.9-.2-.3,0-.6,0-1,0,0,0-.2,0-.3,0,0,0-.2,0-.3,0,0,0-.2,0-.3,0,0,0-.2,0-.3,0,0,0,0,0-.1,0,0,0,0,0-.1,0,0,0-.1,0-.1,0,0,0,0,0-.2,0,0,0-.2-.1-.4-.2l-.5-.2c-.2,0-.4-.2-.5-.2-.1,0-.3-.1-.4-.2-.2-.2-.3-.4-.4-.6-.1-.3-.3-.5-.3-.8,0-.3-.2-.6-.2-.9,0-.3,0-.7-.1-1.1,0-.5,0-1,0-1.4v-1.4c0-.5,0-1,0-1.4,0-.5,0-1,0-1.4,0-1.4.1-2.8.3-4.1.2-1.4.4-2.7.7-4,.3-1.3.6-2.6,1-3.9.4-1.3.9-2.6,1.4-3.8,0,0,0-.1,0-.2,0,0,0-.1.1-.2,0,0,.1-.1.2-.2l.2-.2c.1-.1.3-.2.4-.3l.4-.3c.2-.1.3-.3.4-.4.2-.2.3-.3.4-.5.4-.6.7-1.2,1.1-1.7.4-.6.8-1.1,1.2-1.7.4-.5.8-1.1,1.3-1.5.5-.5.9-1,1.4-1.4.7-.6,1.4-1.2,2.2-1.7.7-.5,1.5-.9,2.2-1.2.7-.3,1.5-.5,2.2-.7.7-.1,1.5-.2,2.3-.2h.5c.8.1,1.6.3,2.3.6.8.3,1.5.6,2.3,1.1.7.5,1.5,1,2.2,1.6.7.6,1.4,1.3,2,2.1.4.5.8,1.1,1.2,1.6.4.5.7,1.1,1,1.7.3.6.6,1.2.9,1.8.3.6.6,1.2.8,1.9,0,.2.2.4.3.5.1.2.2.3.4.5l.4.4c.1.1.2.3.3.4l.2.2c0,0,0,.1.1.2,0,0,0,.1.1.2,0,0,0,.1,0,.2.4,1.3.7,2.6.9,3.9.2,1.3.4,2.6.5,3.9.1,1.3.2,2.6.2,4,0,1.3,0,2.7-.2,4,0,.5,0,.9-.2,1.4,0,.5-.1.9-.2,1.4l-.2,1.4c0,.5-.1.9-.2,1.4,0,.4-.1.7-.2,1,0,.3-.2.6-.3.9-.1.3-.3.5-.4.7-.1.2-.3.4-.5.6-.1,0-.2,0-.4.1-.2,0-.3.1-.5.2l-.5.2c-.2,0-.3,0-.4.1,0,0,0,0-.1,0,0,0,0,0-.1,0,0,0,0,0-.1,0,0,0,0,0,0,0v.4h0v-.4c-.3,0-.4-.1-.5-.2-.1,0-.3,0-.4-.1s-.3,0-.4,0c-.1,0-.3,0-.4,0-.2,0-.5,0-.7,0-.2,0-.5,0-.7.1-.2,0-.5.1-.7.2-.2,0-.4.1-.7.2-.3,0-.6.2-.8.5-.2.2-.4.5-.6.8-.1.3-.2.6-.2.9,0,.3,0,.7,0,1,0,.3.2.6.3.9.1.3.3.5.5.7.2.2.5.3.7.4.3,0,.5.1.8.1s0,0,0,0h.2c.2,0,.4,0,.6,0,.2,0,.4,0,.6,0l1.2-.2c0,0,.1,0,.2,0h.4c0-.1.1-.2.2-.2.2,0,.3-.1.4-.2.1,0,.2-.1.3-.2,0,0,0,0,.1-.1.2-.1.4-.3.6-.4.2-.1.4-.3.6-.5.2-.2.4-.3.6-.5l.5-.4c.1,0,.2-.1.3-.2.1,0,.2-.1.3-.2.1,0,.2-.2.3-.3.1,0,.2-.2.3-.3.3-.3.6-.6.9-1,.3-.4.5-.8.7-1.2.2-.4.4-.9.5-1.4.1-.5.3-1,.3-1.5,0-.4.1-.7.2-1.2l.2-1c0-.4.1-.7.2-1.1,0-.4.1-.7.2-1.1.2-1.5.3-3,.3-4.5,0-1.5,0-3,0-4.5ZM37.1,49.3h0s0,0,0,0ZM37.9,45.4h0s0,0,0,0h0ZM62.2,51.9h0s0,0,0,0ZM62.3,51.9h0Z" fill="#bdbcbc"/>
        <g>
          <path d="M61.8,77.1h0c-1.9,0-3.7.8-5.1,2.1-1.4,1.4-2.1,3.2-2.1,5.1,0,0,0,.2,0,.2l-4.7,1.3c-.5.1-1,.5-1.2,1.1-30.5,7.1-40.8,3.3-44.1-1-3.2-4.3-.8-10.7,1-14.2l3.1-11.2-1.2,2.2c-1.8,3.2-2.9,5.3-3.1,5.6-2.2,3.6-6.7,12.8-1.9,19.2,3,4,9.2,6.1,18.3,6.1h0c7.6,0,17.3-1.4,29-4.1.3.1.7.1,1.1,0l4.8-1.3c1.3,2.1,3.7,3.4,6.1,3.4h0c4,0,7.2-3.2,7.2-7.2,0-4-3.2-7.2-7.2-7.2ZM61.8,79.8h0c2.5,0,4.5,2,4.5,4.5,0,2.5-2,4.5-4.5,4.5h0c-1.2,0-2.3-.5-3.2-1.3s-1.3-2-1.3-3.2c0-1.2.5-2.3,1.3-3.2s2-1.3,3.2-1.3Z" fill="#bdbcbc"/>
          <path d="M61.9,87.8c1.9,0,3.4-1.5,3.4-3.4,0-1.9-1.5-3.4-3.4-3.4-1.9,0-3.4,1.5-3.4,3.4,0,1.9,1.5,3.4,3.4,3.4Z" fill="#bdbcbc"/>
        </g>
      </g>
    </g>
  </g>
</svg>